<?xml version="1.0" encoding="UTF-8" standalone="no" ?>
<!DOCTYPE svg PUBLIC "-//W3C//DTD SVG 1.1//EN" "http://www.w3.org/Graphics/SVG/1.1/DTD/svg11.dtd">
<svg xmlns="http://www.w3.org/2000/svg" xmlns:xlink="http://www.w3.org/1999/xlink" version="1.1" width="95.0159" height="102.0199" xml:space="preserve">
<desc>Created with Fabric.js 1.6.0-rc.1</desc>
<defs></defs>
<g style="stroke: none; stroke-width: 1; stroke-dasharray: none; stroke-linecap: butt; stroke-linejoin: miter; stroke-miterlimit: 10; fill: none; fill-rule: nonzero; opacity: 1;" transform="translate(10 10) scale(0.17 0.17)" >
  <path d="M 440.267 391.123 L 297.208 240.535 H 176.738 L 57.999 401.137 c 7.755 -6.249 17.619 -10.014 28.386 -10.014 H 440.267 z" style="stroke: none; stroke-width: 1; stroke-dasharray: none; stroke-linecap: butt; stroke-linejoin: miter; stroke-miterlimit: 10; fill: #e0e0e0; fill-rule: nonzero; opacity: 1;" transform=" matrix(1 0 0 1 0 0) " stroke-linecap="round" />
  <path d="M 387.411 249.894 c -4.119 -24.666 -20.442 -49.34 -35.893 -67.96 c -5.271 10.18 -13.771 18.379 -24.139 23.341 c 1.114 42.112 0.557 86.573 -23.213 164.111 c 7.951 8.749 17.408 17.928 25.08 21.768 C 370.793 374.505 395.716 299.746 387.411 249.894 z" style="stroke: none; stroke-width: 1; stroke-dasharray: none; stroke-linecap: butt; stroke-linejoin: miter; stroke-miterlimit: 10; fill: #e0e0e0; fill-rule: nonzero; opacity: 1;" transform=" matrix(1 0 0 1 0 0) " stroke-linecap="round" />
  <path d="M 146.56 205.259 c -10.368 -4.954 -18.861 -13.161 -24.139 -23.341 c -15.443 18.635 -31.774 43.294 -35.885 67.968 c -8.312 49.852 16.617 124.619 58.157 141.237 c 7.688 -3.84 17.122 -13.018 25.08 -21.768 C 145.995 291.832 145.446 247.364 146.56 205.259 z" style="stroke: none; stroke-width: 1; stroke-dasharray: none; stroke-linecap: butt; stroke-linejoin: miter; stroke-miterlimit: 10; fill: #e0e0e0; fill-rule: nonzero; opacity: 1;" transform=" matrix(1 0 0 1 0 0) " stroke-linecap="round" />
  <path d="M 304.738 210.417 c -29.109 0 -52.706 -23.597 -52.706 -52.706 c 0 -1.762 0.105 -3.501 0.264 -5.218 c -10.248 -2.974 -20.397 -2.974 -30.645 0 c 0.166 1.717 0.264 3.456 0.264 5.218 c 0 29.109 -23.597 52.706 -52.706 52.706 c -8.117 0 -15.782 -1.882 -22.648 -5.165 c -1.212 45.899 -0.52 94.532 30.178 185.871 h 60.235 h 60.235 c 30.697 -91.339 31.39 -139.972 30.178 -185.879 C 320.52 208.535 312.855 210.417 304.738 210.417 z" style="stroke: none; stroke-width: 1; stroke-dasharray: none; stroke-linecap: butt; stroke-linejoin: miter; stroke-miterlimit: 10; fill: #545454; fill-rule: nonzero; opacity: 1;" transform=" matrix(1 0 0 1 0 0) " stroke-linecap="round" />
  <path d="M 221.651 152.493 c 0.166 1.717 0.264 3.456 0.264 5.218 c 0 29.109 -23.597 52.706 -52.706 52.706 c -8.117 0 -15.782 -1.882 -22.648 -5.165 c -1.212 45.899 -0.52 94.532 30.178 185.871 h 60.235 V 150.257 C 231.876 150.257 226.778 151.01 221.651 152.493 z" style="stroke: none; stroke-width: 1; stroke-dasharray: none; stroke-linecap: butt; stroke-linejoin: miter; stroke-miterlimit: 10; fill: #666666; fill-rule: nonzero; opacity: 1;" transform=" matrix(1 0 0 1 0 0) " stroke-linecap="round" />
  <polygon points="349.91,73.76 349.91,112.95 364.97,90.36 380.03,112.95 380.03,67.43 " style="stroke: none; stroke-width: 1; stroke-dasharray: none; stroke-linecap: butt; stroke-linejoin: miter; stroke-miterlimit: 10; fill: #e0e0e0; fill-rule: nonzero; opacity: 1;" transform="  matrix(1 0 0 1 0 0) "/>
  <path d="M 389.941 51.004 L 239.352 0.384 c -1.544 -0.512 -3.215 -0.512 -4.766 0 L 83.998 51.004 c -3.23 1.084 -5.331 4.194 -5.135 7.59 c 0.203 3.396 2.65 6.242 5.978 6.927 l 69.308 14.75 v 77.854 h 165.647 V 80.271 l 69.301 -14.75 c 3.328 -0.685 5.79 -3.531 5.971 -6.927 C 395.264 55.198 393.171 52.088 389.941 51.004 z" style="stroke: none; stroke-width: 1; stroke-dasharray: none; stroke-linecap: butt; stroke-linejoin: miter; stroke-miterlimit: 10; fill: #e0e0e0; fill-rule: nonzero; opacity: 1;" transform=" matrix(1 0 0 1 0 0) " stroke-linecap="round" />
  <path d="M 84.006 51.004 c -3.23 1.084 -5.331 4.194 -5.135 7.59 c 0.203 3.396 2.65 6.242 5.978 6.927 l 150.588 32.045 c 0.504 0.113 1.024 0 1.536 0 V 0.008 c -0.806 0 -1.611 0.136 -2.379 0.384 L 84.006 51.004 z" style="stroke: none; stroke-width: 1; stroke-dasharray: none; stroke-linecap: butt; stroke-linejoin: miter; stroke-miterlimit: 10; fill: #545454; fill-rule: nonzero; opacity: 1;" transform=" matrix(1 0 0 1 0 0) " stroke-linecap="round" />
  <path d="M 440.267 391.123 v 7.529 c 0 4.164 -3.373 7.529 -7.529 7.529 H 86.385 c -16.407 0 -30.118 13.357 -30.118 30.118 c 0 16.648 13.478 30.118 30.118 30.118 h 346.353 c 4.156 0 7.529 3.366 7.529 7.529 c 0 4.164 -3.373 7.529 -7.529 7.529 H 86.385 c -24.922 0 -45.176 -20.247 -45.176 -45.176 c 0 -14.148 6.551 -26.872 16.791 -35.162 c 7.755 -6.249 17.619 -10.014 28.386 -10.014 H 440.267 z" style="stroke: none; stroke-width: 1; stroke-dasharray: none; stroke-linecap: butt; stroke-linejoin: miter; stroke-miterlimit: 10; fill: #e0e0e0; fill-rule: nonzero; opacity: 1;" transform=" matrix(1 0 0 1 0 0) " stroke-linecap="round" />
  <path d="M 417.679 406.182 v 60.235 H 86.385 c -16.399 0 -30.118 -13.357 -30.118 -30.118 c 0 -16.76 13.719 -30.118 30.118 -30.118 H 417.679 z" style="stroke: none; stroke-width: 1; stroke-dasharray: none; stroke-linecap: butt; stroke-linejoin: miter; stroke-miterlimit: 10; fill: #000009; fill-rule: nonzero; opacity: 1;" transform=" matrix(1 0 0 1 0 0) " stroke-linecap="round" />
  <path d="M 417.679 413.711 v 15.059 H 57.246 c 1.506 -5.941 4.819 -11.136 9.261 -15.059 H 417.679 z" style="stroke: none; stroke-width: 1; stroke-dasharray: none; stroke-linecap: butt; stroke-linejoin: miter; stroke-miterlimit: 10; fill: #e0e0e0; fill-rule: nonzero; opacity: 1;" transform=" matrix(1 0 0 1 0 0) " stroke-linecap="round" />
  <path d="M 417.679 443.829 v 15.059 H 66.507 c -4.442 -3.915 -7.755 -9.103 -9.261 -15.059 H 417.679 z" style="stroke: none; stroke-width: 1; stroke-dasharray: none; stroke-linecap: butt; stroke-linejoin: miter; stroke-miterlimit: 10; fill: #e0e0e0; fill-rule: nonzero; opacity: 1;" transform=" matrix(1 0 0 1 0 0) " stroke-linecap="round" />
  <path d="M 327.326 376.064 c -30.118 -20.073 -60.235 -20.073 -90.353 0 c -30.118 -20.073 -60.235 -20.073 -90.353 0 c -5.022 15.059 0 30.118 15.059 45.176 l 15.059 -30.118 l 15.059 30.118 l 15.059 -30.118 l 15.059 30.118 c 7.529 -7.529 12.552 -15.059 15.059 -22.588 c 2.507 7.529 7.529 15.059 15.059 22.588 l 15.059 -30.118 l 15.059 30.118 l 15.059 -30.118 l 15.059 30.118 C 327.326 406.182 332.348 391.123 327.326 376.064 z" style="stroke: none; stroke-width: 1; stroke-dasharray: none; stroke-linecap: butt; stroke-linejoin: miter; stroke-miterlimit: 10; fill: #050505; fill-rule: nonzero; opacity: 1;" transform=" matrix(1 0 0 1 0 0) " stroke-linecap="round" />
  <path d="M 242.259 201.487 c -2.936 -2.891 -7.65 -2.891 -10.579 0.008 c -4.856 4.789 -13.056 11.166 -24.599 14.396 c -2.688 0.753 -4.744 2.936 -5.331 5.662 c -0.595 2.733 0.384 5.557 2.522 7.356 c 13.711 11.497 32.7 26.684 32.7 26.684 s 18.982 -15.202 32.693 -26.692 c 2.138 -1.792 3.11 -4.623 2.515 -7.356 c -0.587 -2.726 -2.635 -4.909 -5.323 -5.662 C 255.33 212.661 247.123 206.283 242.259 201.487 z" style="stroke: none; stroke-width: 1; stroke-dasharray: none; stroke-linecap: butt; stroke-linejoin: miter; stroke-miterlimit: 10; fill: #050505; fill-rule: nonzero; opacity: 1;" transform=" matrix(1 0 0 1 0 0) " stroke-linecap="round" />
  <path d="M 304.738 105.005 c -22.091 0 -40.968 13.606 -48.806 32.873 c -12.627 -3.546 -25.284 -3.546 -37.911 0 c -7.838 -19.275 -26.722 -32.873 -48.813 -32.873 c -29.109 0 -52.706 23.605 -52.706 52.706 c 0 29.109 23.597 52.706 52.706 52.706 s 52.706 -23.597 52.706 -52.706 c 0 -1.762 -0.098 -3.501 -0.264 -5.218 c 10.248 -2.974 20.397 -2.974 30.645 0 c -0.158 1.717 -0.264 3.456 -0.264 5.218 c 0 29.109 23.597 52.706 52.706 52.706 s 52.706 -23.597 52.706 -52.706 C 357.444 128.61 333.847 105.005 304.738 105.005 z" style="stroke: none; stroke-width: 1; stroke-dasharray: none; stroke-linecap: butt; stroke-linejoin: miter; stroke-miterlimit: 10; fill: #050505; fill-rule: nonzero; opacity: 1;" transform=" matrix(1 0 0 1 0 0) " stroke-linecap="round" />
  <circle cx="169.207" cy="157.71699999999998" r="37.647" style="stroke: none; stroke-width: 1; stroke-dasharray: none; stroke-linecap: butt; stroke-linejoin: miter; stroke-miterlimit: 10; fill: #040504; fill-rule: nonzero; opacity: 1;" transform="  matrix(1 0 0 1 0 0) "/>
  <path d="M 169.208 120.064 c -20.796 0 -37.647 16.866 -37.647 37.647 c 0 10.135 4.051 19.298 10.564 26.059 l 53.143 -53.135 C 188.499 124.122 179.343 120.064 169.208 120.064 z" style="stroke: none; stroke-width: 1; stroke-dasharray: none; stroke-linecap: butt; stroke-linejoin: miter; stroke-miterlimit: 10; fill: #000009; fill-rule: nonzero; opacity: 1;" transform=" matrix(1 0 0 1 0 0) " stroke-linecap="round" />
  <circle cx="304.73699999999997" cy="157.71699999999998" r="37.647" style="stroke: none; stroke-width: 1; stroke-dasharray: none; stroke-linecap: butt; stroke-linejoin: miter; stroke-miterlimit: 10; fill: #040504; fill-rule: nonzero; opacity: 1;" transform="  matrix(1 0 0 1 0 0) "/>
  <path d="M 304.738 120.064 c -20.796 0 -37.647 16.866 -37.647 37.647 c 0 10.135 4.051 19.298 10.556 26.059 l 53.15 -53.135 C 324.036 124.122 314.872 120.064 304.738 120.064 z" style="stroke: none; stroke-width: 1; stroke-dasharray: none; stroke-linecap: butt; stroke-linejoin: miter; stroke-miterlimit: 10; fill: #000009; fill-rule: nonzero; opacity: 1;" transform=" matrix(1 0 0 1 0 0) " stroke-linecap="round" />
  <path d="M 169.208 142.652 c -5.18 0 -9.736 2.62 -12.446 6.588 l 12.446 7.191 l -13.515 7.8 c 2.44 5.037 7.544 8.538 13.515 8.538 c 8.312 0 15.059 -6.739 15.059 -15.059 C 184.267 149.406 177.521 142.652 169.208 142.652 z" style="stroke: none; stroke-width: 1; stroke-dasharray: none; stroke-linecap: butt; stroke-linejoin: miter; stroke-miterlimit: 10; fill: #e0e0e0; fill-rule: nonzero; opacity: 1;" transform=" matrix(1 0 0 1 0 0) " stroke-linecap="round" />
  <path d="M 304.738 142.652 c -5.18 0 -9.736 2.62 -12.439 6.588 l 12.439 7.191 l -13.515 7.8 c 2.44 5.037 7.544 8.538 13.515 8.538 c 8.312 0 15.059 -6.739 15.059 -15.059 C 319.797 149.406 313.05 142.652 304.738 142.652 z" style="stroke: none; stroke-width: 1; stroke-dasharray: none; stroke-linecap: butt; stroke-linejoin: miter; stroke-miterlimit: 10; fill: #e0e0e0; fill-rule: nonzero; opacity: 1;" transform=" matrix(1 0 0 1 0 0) " stroke-linecap="round" />
  <path d="M 231.688 201.495 c -4.856 4.789 -13.056 11.166 -24.606 14.396 c -2.688 0.753 -4.744 2.929 -5.331 5.662 c -0.587 2.726 0.384 5.557 2.522 7.356 c 13.711 11.497 32.7 26.684 32.7 26.684 v -56.282 C 235.061 199.319 233.148 200.034 231.688 201.495 z" style="stroke: none; stroke-width: 1; stroke-dasharray: none; stroke-linecap: butt; stroke-linejoin: miter; stroke-miterlimit: 10; fill: #050505; fill-rule: nonzero; opacity: 1;" transform=" matrix(1 0 0 1 0 0) " stroke-linecap="round" />
</g>
</svg>